<svg xmlns="http://www.w3.org/2000/svg" xmlns:xlink="http://www.w3.org/1999/xlink" version="1.1" id="Layer_1" x="0px" y="0px" width="100px" height="100px" viewBox="0 0 100 100" enable-background="new 0 0 100 100" xml:space="preserve">
<path fill="#000000" d="M41.631,57.403c-0.025,0.001-0.049,0.001-0.075,0.001c-0.347,0-0.683-0.131-0.937-0.369l-22.721-21.36  l-4.463,12.92c0.084,0.234,0.868,1.781,7.473,5.17c4.96,2.545,11.619,5.304,18.75,7.768c11.108,3.837,21.515,6.315,26.512,6.316l0,0  c1.51,0,1.994-0.238,2.104-0.307l4.085-11.821L41.631,57.403z"/>
<path fill="#000000" d="M77.038,49.548c-2.437-6.87-21.338-11.134-28.415-12.197c-0.748-0.112-1.262-0.809-1.149-1.556  c0.112-0.747,0.804-1.263,1.557-1.149c0.271,0.041,6.744,1.026,13.729,3.161c9.687,2.96,15.357,6.603,16.855,10.828  c0.541,1.522,0.891,2.801,1.114,3.891l13.457-0.736L54.899,17.336L3.428,18.318l38.639,36.323l35.904-1.965  C77.769,51.801,77.474,50.773,77.038,49.548z"/>
<path fill="#000000" d="M96.455,64.848c-0.806-2.78-5.336-2.922-6.235-2.922l-0.148,0.009c-2.179,0.238-3.955-0.229-5.436-1.427  c-3.288-2.662-3.876-7.931-3.882-7.984l-2.775,0.152c0.024,0.265,0.745,6.554,4.922,9.948c2.032,1.649,4.518,2.338,7.388,2.038  c1.742,0.019,3.421,0.538,3.54,0.948c0.002,0.013,0.191,1.3-4.579,4.662c-0.963-0.327-2.174-0.071-3.101,0.764  c-0.635,0.572-1.017,1.305-1.121,2.028c-1.687,0.902-9.243,5.564-12.971,18.267c-0.106,0.361,0.102,0.743,0.464,0.849  c0.063,0.019,0.129,0.028,0.192,0.028c0.295,0,0.567-0.194,0.655-0.491c3.035-10.341,8.806-15.158,11.327-16.842  c-2.627,2.314-11.042,10.496-6.799,16.963c0.133,0.2,0.35,0.309,0.573,0.309c0.128,0,0.26-0.036,0.375-0.112  c0.317-0.207,0.403-0.63,0.196-0.947c-3.585-5.461,4.095-12.981,6.533-15.158c-2.155,2.354-6.271,7.477-5.859,11.867  c0.177,1.902,1.172,3.451,2.948,4.601c0.112,0.075,0.243,0.109,0.371,0.109c0.223,0,0.443-0.11,0.573-0.312  c0.206-0.316,0.115-0.74-0.203-0.946c-1.426-0.923-2.188-2.093-2.328-3.578c-0.437-4.649,5.354-10.701,6.502-11.854  c0.711-0.046,1.453-0.341,2.068-0.896c0.739-0.666,1.124-1.549,1.141-2.383C95.301,69.37,97.065,66.953,96.455,64.848z"/>
</svg>