<?xml version="1.0" encoding="utf-8"?>
<!-- Generator: Adobe Illustrator 16.0.4, SVG Export Plug-In . SVG Version: 6.00 Build 0)  -->
<!DOCTYPE svg PUBLIC "-//W3C//DTD SVG 1.1//EN" "http://www.w3.org/Graphics/SVG/1.1/DTD/svg11.dtd">
<svg version="1.1" id="Layer_6" xmlns="http://www.w3.org/2000/svg" xmlns:xlink="http://www.w3.org/1999/xlink" x="0px" y="0px"
	 width="468px" height="288px" viewBox="0 0 468 288" enable-background="new 0 0 468 288" xml:space="preserve">
<path d="M6.5-8c0-0.553-0.447-1-1-1h-11c-0.553,0-1,0.447-1,1C-7.881-8-9-6.881-9-5.5v13C-9,8.881-7.881,10-6.5,10v1
	c0,0.552,0.28,1,0.625,1h1.25C-4.28,12-4,11.552-4,11v-1h8v1c0,0.552,0.28,1,0.625,1h1.25C6.22,12,6.5,11.552,6.5,11v-1
	C7.881,10,9,8.881,9,7.5v-13C9-6.881,7.881-8,6.5-8z M7.5-6c0,0.552-0.448,1-1,1h-13c-0.552,0-1-0.448-1-1s0.448-1,1-1h13
	C7.052-7,7.5-6.552,7.5-6z M8-3v6c0,0.553-0.448,1-1,1H-7c-0.552,0-1-0.448-1-1v-6c0-0.552,0.448-1,1-1H7C7.552-4,8-3.552,8-3z
	 M-5.75,5.562v1.312C-5.75,7.497-6.253,8-6.875,8h-0.562C-7.748,8-8,7.748-8,7.438V5.562C-8,5.252-7.748,5-7.438,5h1.125
	C-6.001,5-5.75,5.252-5.75,5.562z M8,5.562v1.875C8,7.748,7.748,8,7.438,8H6.876C6.253,8,5.75,7.497,5.75,6.875V5.562
	C5.75,5.252,6.001,5,6.312,5h1.125C7.748,5,8,5.252,8,5.562z"/>
</svg>
