<?xml version="1.0" encoding="utf-8"?>
<!-- Generator: Adobe Illustrator 16.0.4, SVG Export Plug-In . SVG Version: 6.00 Build 0)  -->
<!DOCTYPE svg PUBLIC "-//W3C//DTD SVG 1.1//EN" "http://www.w3.org/Graphics/SVG/1.1/DTD/svg11.dtd">
<svg version="1.1" id="Layer_6" xmlns="http://www.w3.org/2000/svg" xmlns:xlink="http://www.w3.org/1999/xlink" x="0px" y="0px"
	 width="468px" height="288px" viewBox="0 0 468 288" enable-background="new 0 0 468 288" xml:space="preserve">
<path d="M-8.5,11.5V12h-1h-1h-1v-0.5c0-0.276,0.224-0.5,0.5-0.5h0.5V1H-13c-0.276,0-0.5-0.224-0.5-0.5v-9c0-0.276,0.224-0.5,0.5-0.5
	h3c0.276,0,0.5,0.224,0.5,0.5v0.047V1v10H-9C-8.724,11-8.5,11.224-8.5,11.5z M11.75-8c0-0.553-0.447-1-1-1h-11c-0.553,0-1,0.447-1,1
	c-1.381,0-2.5,1.119-2.5,2.5v13c0,1.381,1.119,2.5,2.5,2.5v1c0,0.552,0.28,1,0.625,1h1.25c0.345,0,0.625-0.448,0.625-1v-1h8v1
	c0,0.552,0.28,1,0.625,1h1.25c0.345,0,0.625-0.448,0.625-1v-1c1.381,0,2.5-1.119,2.5-2.5v-13C14.25-6.881,13.131-8,11.75-8z
	 M12.75-6c0,0.552-0.448,1-1,1h-13c-0.552,0-1-0.448-1-1s0.448-1,1-1h13C12.302-7,12.75-6.552,12.75-6z M13.25-3v6
	c0,0.553-0.448,1-1,1h-14c-0.552,0-1-0.448-1-1v-6c0-0.552,0.448-1,1-1h14C12.802-4,13.25-3.552,13.25-3z M-0.5,5.562v1.312
	C-0.5,7.497-1.003,8-1.625,8h-0.562C-2.498,8-2.75,7.748-2.75,7.438V5.562C-2.75,5.252-2.498,5-2.188,5h1.125
	C-0.751,5-0.5,5.252-0.5,5.562z M13.25,5.562v1.875C13.25,7.748,12.998,8,12.688,8h-0.562C11.503,8,11,7.497,11,6.875V5.562
	C11,5.252,11.251,5,11.562,5h1.125C12.998,5,13.25,5.252,13.25,5.562z"/>
</svg>
